<svg width="318" height="279" xmlns="http://www.w3.org/2000/svg" xmlns:xlink="http://www.w3.org/1999/xlink"><defs><path d="M310.34 153.5l-62.43 108.131a30 30 0 0 1-25.98 15H97.07a30 30 0 0 1-25.98-15L8.66 153.5a30 30 0 0 1 0-30L71.09 15.369a30 30 0 0 1 25.98-15h124.86a30 30 0 0 1 25.98 15L310.34 123.5a30 30 0 0 1 0 30z" id="a"/></defs><g fill="none" fill-rule="evenodd"><g transform="translate(-1 1)"><mask id="b" fill="#fff"><use xlink:href="#a"/></mask><g mask="url(#b)" fill="#FFE01C" fill-rule="nonzero"><path transform="translate(-58 -13)" d="M0.5 0H455.5V303H0.5z"/></g></g><g transform="translate(64 73)" fill="#000" fill-rule="nonzero"><path d="M23.143 0H3.857A3.857 3.857 0 0 0 0 3.857v19.286a3.857 3.857 0 1 0 7.714 0V7.714h15.429a3.857 3.857 0 1 0 0-7.714zm163 0h-19.286a3.857 3.857 0 1 0 0 7.714h15.429v15.429a3.857 3.857 0 1 0 7.714 0V3.857A3.857 3.857 0 0 0 186.143 0zm0 97a3.857 3.857 0 0 0-3.857 3.857v15.429h-15.429a3.857 3.857 0 1 0 0 7.714h19.286a3.857 3.857 0 0 0 3.857-3.857v-19.286A3.857 3.857 0 0 0 186.143 97zm-163 19.286H7.714v-15.429a3.857 3.857 0 1 0-7.714 0v19.286A3.857 3.857 0 0 0 3.857 124h19.286a3.857 3.857 0 1 0 0-7.714zM174 104.166V19.834c0-2.117-1.79-3.833-4-3.833s-4 1.716-4 3.833v84.334c0 2.117 1.79 3.833 4 3.833s4-1.716 4-3.833zM152 16c-2.21 0-4 1.72-4 3.84v66.32c0 2.12 1.79 3.84 4 3.84s4-1.72 4-3.84V19.84c0-2.12-1.79-3.84-4-3.84zm0 83c-2.21 0-4 1.804-4 4.03v.94c0 2.226 1.79 4.03 4 4.03s4-1.804 4-4.03v-.94c0-2.226-1.79-4.03-4-4.03zm-19-83c-2.21 0-4 1.72-4 3.84v66.32c0 2.12 1.79 3.84 4 3.84s4-1.72 4-3.84V19.84c0-2.12-1.79-3.84-4-3.84zm0 83c-2.21 0-4 1.804-4 4.03v.94c0 2.226 1.79 4.03 4 4.03s4-1.804 4-4.03v-.94c0-2.226-1.79-4.03-4-4.03zm-19-83c-2.21 0-4 1.72-4 3.84v66.32c0 2.12 1.79 3.84 4 3.84s4-1.72 4-3.84V19.84c0-2.12-1.79-3.84-4-3.84zm0 83c-2.21 0-4 1.804-4 4.03v.94c0 2.226 1.79 4.03 4 4.03s4-1.804 4-4.03v-.94c0-2.226-1.79-4.03-4-4.03zM95 16c-2.21 0-4 1.72-4 3.84v66.32c0 2.12 1.79 3.84 4 3.84s4-1.72 4-3.84V19.84c0-2.12-1.79-3.84-4-3.84zm0 83c-2.21 0-4 1.804-4 4.03v.94c0 2.226 1.79 4.03 4 4.03s4-1.804 4-4.03v-.94c0-2.226-1.79-4.03-4-4.03zM76 16c-2.21 0-4 1.72-4 3.84v66.32c0 2.12 1.79 3.84 4 3.84s4-1.72 4-3.84V19.84c0-2.12-1.79-3.84-4-3.84zm0 83c-2.21 0-4 1.804-4 4.03v.94c0 2.226 1.79 4.03 4 4.03s4-1.804 4-4.03v-.94c0-2.226-1.79-4.03-4-4.03zM58 16c-2.21 0-4 1.72-4 3.84v66.32c0 2.12 1.79 3.84 4 3.84s4-1.72 4-3.84V19.84c0-2.12-1.79-3.84-4-3.84zm0 83c-2.21 0-4 1.804-4 4.03v.94c0 2.226 1.79 4.03 4 4.03s4-1.804 4-4.03v-.94c0-2.226-1.79-4.03-4-4.03zM39 16c-2.21 0-4 1.72-4 3.84v66.32c0 2.12 1.79 3.84 4 3.84s4-1.72 4-3.84V19.84c0-2.12-1.79-3.84-4-3.84zm0 83c-2.21 0-4 1.804-4 4.03v.94c0 2.226 1.79 4.03 4 4.03s4-1.804 4-4.03v-.94c0-2.226-1.79-4.03-4-4.03zm-15 5.167V19.833C24 17.716 22.21 16 20 16s-4 1.716-4 3.833v84.334c0 2.117 1.79 3.833 4 3.833s4-1.716 4-3.833z"/></g></g></svg>