<svg width="318" height="279" xmlns="http://www.w3.org/2000/svg" xmlns:xlink="http://www.w3.org/1999/xlink"><defs><path d="M310.34 153.5l-62.43 108.131a30 30 0 0 1-25.98 15H97.07a30 30 0 0 1-25.98-15L8.66 153.5a30 30 0 0 1 0-30L71.09 15.369a30 30 0 0 1 25.98-15h124.86a30 30 0 0 1 25.98 15L310.34 123.5a30 30 0 0 1 0 30z" id="a"/><linearGradient x1="50%" y1="3.125%" x2="50%" y2="97.125%" id="c"><stop stop-color="red" offset="0%"/><stop stop-color="#E0F" offset="100%"/></linearGradient><linearGradient x1="50%" y1="3.125%" x2="50%" y2="97.125%" id="d"><stop stop-color="#FF0019" offset="0%"/><stop stop-color="#CE00F3" offset="100%"/></linearGradient><linearGradient x1="50%" y1="3.125%" x2="50%" y2="97.125%" id="e"><stop stop-color="#FF0031" offset="0%"/><stop stop-color="#B000E6" offset="100%"/></linearGradient><linearGradient x1="50%" y1="3.125%" x2="50%" y2="97.125%" id="f"><stop stop-color="#FF004A" offset="0%"/><stop stop-color="#9400DA" offset="100%"/></linearGradient><linearGradient x1="50%" y1="3.125%" x2="50%" y2="97.125%" id="g"><stop stop-color="#FF0063" offset="0%"/><stop stop-color="#7A00CE" offset="100%"/></linearGradient><linearGradient x1="50%" y1="3.125%" x2="50%" y2="97.125%" id="h"><stop stop-color="#FF007C" offset="0%"/><stop stop-color="#6200C1" offset="100%"/></linearGradient><linearGradient x1="50%" y1="3.125%" x2="50%" y2="97.125%" id="i"><stop stop-color="#FF0094" offset="0%"/><stop stop-color="#4D00B5" offset="100%"/></linearGradient><linearGradient x1="50%" y1="3.125%" x2="50%" y2="97.125%" id="j"><stop stop-color="#FF00AD" offset="0%"/><stop stop-color="#3900A8" offset="100%"/></linearGradient><linearGradient x1="50%" y1="3.125%" x2="50%" y2="97.125%" id="k"><stop stop-color="#FF00C6" offset="0%"/><stop stop-color="#28009C" offset="100%"/></linearGradient><linearGradient x1="50%" y1="3.125%" x2="50%" y2="97.125%" id="l"><stop stop-color="#FF00DF" offset="0%"/><stop stop-color="#180090" offset="100%"/></linearGradient></defs><g fill="none" fill-rule="evenodd"><path fill="#FFF" d="M0 0H318V279H0z"/><g transform="translate(-1 1)"><mask id="b" fill="#fff"><use xlink:href="#a"/></mask><path stroke="#979797" fill="#EE9C3F" mask="url(#b)" d="M0.5 -20.5H332.5V291.5H0.5z"/><g mask="url(#b)"><g transform="translate(-58 -13)" fill-rule="nonzero"><path fill="#D84994" d="M0.5 0H455.5V303H0.5z"/><g transform="translate(.5)"><path fill="url(#c)" d="M0 0H455V303H0z"/><path fill="url(#d)" d="M37.917 0H455V303H37.917z"/><path fill="url(#e)" d="M75.833 0H455V303H75.833z"/><path fill="url(#f)" d="M113.75 0H455V303H113.75z"/><path fill="url(#g)" d="M151.667 0H455V303H151.667z"/><path fill="url(#h)" d="M189.583 0H455V303H189.583z"/><path fill="url(#i)" d="M227.5 0H455V303H227.5z"/><path fill="url(#j)" d="M265.417 0H455V303H265.417z"/><path fill="url(#k)" d="M303.333 0H455V303H303.333z"/><path fill="url(#l)" d="M341.25 0H455V303H341.25z"/></g></g></g></g><g transform="translate(64 73)" fill="#FFF" fill-rule="nonzero"><path d="M23.143 0H3.857A3.857 3.857 0 0 0 0 3.857v19.286a3.857 3.857 0 1 0 7.714 0V7.714h15.429a3.857 3.857 0 1 0 0-7.714zm163 0h-19.286a3.857 3.857 0 1 0 0 7.714h15.429v15.429a3.857 3.857 0 1 0 7.714 0V3.857A3.857 3.857 0 0 0 186.143 0zm0 97a3.857 3.857 0 0 0-3.857 3.857v15.429h-15.429a3.857 3.857 0 1 0 0 7.714h19.286a3.857 3.857 0 0 0 3.857-3.857v-19.286A3.857 3.857 0 0 0 186.143 97zm-163 19.286H7.714v-15.429a3.857 3.857 0 1 0-7.714 0v19.286A3.857 3.857 0 0 0 3.857 124h19.286a3.857 3.857 0 1 0 0-7.714zM174 104.166V19.834c0-2.117-1.79-3.833-4-3.833s-4 1.716-4 3.833v84.334c0 2.117 1.79 3.833 4 3.833s4-1.716 4-3.833zM152 16c-2.21 0-4 1.72-4 3.84v66.32c0 2.12 1.79 3.84 4 3.84s4-1.72 4-3.84V19.84c0-2.12-1.79-3.84-4-3.84zm0 83c-2.21 0-4 1.804-4 4.03v.94c0 2.226 1.79 4.03 4 4.03s4-1.804 4-4.03v-.94c0-2.226-1.79-4.03-4-4.03zm-19-83c-2.21 0-4 1.72-4 3.84v66.32c0 2.12 1.79 3.84 4 3.84s4-1.72 4-3.84V19.84c0-2.12-1.79-3.84-4-3.84zm0 83c-2.21 0-4 1.804-4 4.03v.94c0 2.226 1.79 4.03 4 4.03s4-1.804 4-4.03v-.94c0-2.226-1.79-4.03-4-4.03zm-19-83c-2.21 0-4 1.72-4 3.84v66.32c0 2.12 1.79 3.84 4 3.84s4-1.72 4-3.84V19.84c0-2.12-1.79-3.84-4-3.84zm0 83c-2.21 0-4 1.804-4 4.03v.94c0 2.226 1.79 4.03 4 4.03s4-1.804 4-4.03v-.94c0-2.226-1.79-4.03-4-4.03zM95 16c-2.21 0-4 1.72-4 3.84v66.32c0 2.12 1.79 3.84 4 3.84s4-1.72 4-3.84V19.84c0-2.12-1.79-3.84-4-3.84zm0 83c-2.21 0-4 1.804-4 4.03v.94c0 2.226 1.79 4.03 4 4.03s4-1.804 4-4.03v-.94c0-2.226-1.79-4.03-4-4.03zM76 16c-2.21 0-4 1.72-4 3.84v66.32c0 2.12 1.79 3.84 4 3.84s4-1.72 4-3.84V19.84c0-2.12-1.79-3.84-4-3.84zm0 83c-2.21 0-4 1.804-4 4.03v.94c0 2.226 1.79 4.03 4 4.03s4-1.804 4-4.03v-.94c0-2.226-1.79-4.03-4-4.03zM58 16c-2.21 0-4 1.72-4 3.84v66.32c0 2.12 1.79 3.84 4 3.84s4-1.72 4-3.84V19.84c0-2.12-1.79-3.84-4-3.84zm0 83c-2.21 0-4 1.804-4 4.03v.94c0 2.226 1.79 4.03 4 4.03s4-1.804 4-4.03v-.94c0-2.226-1.79-4.03-4-4.03zM39 16c-2.21 0-4 1.72-4 3.84v66.32c0 2.12 1.79 3.84 4 3.84s4-1.72 4-3.84V19.84c0-2.12-1.79-3.84-4-3.84zm0 83c-2.21 0-4 1.804-4 4.03v.94c0 2.226 1.79 4.03 4 4.03s4-1.804 4-4.03v-.94c0-2.226-1.79-4.03-4-4.03zm-15 5.167V19.833C24 17.716 22.21 16 20 16s-4 1.716-4 3.833v84.334c0 2.117 1.79 3.833 4 3.833s4-1.716 4-3.833z"/></g></g></svg>